<?xml version="1.0" encoding="utf-8"?>
<!-- Generator: Adobe Illustrator 23.0.0, SVG Export Plug-In . SVG Version: 6.00 Build 0)  -->
<svg version="1.1" id="download-on-the-app-store-apple"
	 xmlns="http://www.w3.org/2000/svg" xmlns:xlink="http://www.w3.org/1999/xlink" x="0px" y="0px" viewBox="0 0 128.3 38"
	 style="enable-background:new 0 0 128.3 38;" xml:space="preserve">
<style type="text/css">
	.st0{fill:#FFFFFF;}
	.st1{fill:#A6A6A6;}
	.st2{fill:url(#Path_16_1_);}
</style>
<path id="Path_12" class="st0" d="M127.5,33.5c0,2-1.6,3.6-3.6,3.6c0,0,0,0,0,0H4.5c-2,0-3.6-1.6-3.7-3.6v-29c0-2,1.6-3.6,3.7-3.6
	h119.3c2,0,3.6,1.6,3.6,3.6c0,0,0,0,0,0L127.5,33.5L127.5,33.5z"/>
<path id="Path_13" class="st1" d="M123.8,38H4.5C2,38,0,36,0,33.5v-29C0,2,2,0,4.5,0h119.3c2.5,0,4.5,2,4.5,4.5v29
	C128.3,36,126.3,38,123.8,38L123.8,38z"/>
<path id="Path_14" d="M127.5,33.5c0,2-1.6,3.6-3.6,3.6c0,0,0,0,0,0H4.5c-2,0-3.6-1.6-3.7-3.6v-29c0-2,1.6-3.6,3.7-3.6h119.3
	c2,0,3.6,1.6,3.6,3.6c0,0,0,0,0,0L127.5,33.5L127.5,33.5z"/>
<path id="Path_15" class="st0" d="M28.7,18.8c0-1.9,1-3.6,2.6-4.6c-1-1.5-2.7-2.3-4.4-2.4c-1.9-0.2-3.7,1.1-4.6,1.1
	c-1,0-2.4-1.1-4-1.1c-2.1,0.1-4,1.2-5,3c-2.2,3.7-0.5,9.2,1.5,12.2c1,1.5,2.2,3.1,3.8,3.1c1.5-0.1,2.1-1,4-1c1.8,0,2.4,1,4,0.9
	c1.7,0,2.7-1.5,3.7-3c0.7-1.1,1.3-2.2,1.7-3.4C29.9,22.9,28.7,21,28.7,18.8z M25.6,9.8c0.9-1.1,1.4-2.5,1.2-3.9
	c-1.4,0.1-2.7,0.8-3.6,1.8c-0.9,1-1.4,2.4-1.3,3.7C23.4,11.5,24.7,10.9,25.6,9.8z"/>
<linearGradient id="Path_16_1_" gradientUnits="userSpaceOnUse" x1="-428.1419" y1="504.9397" x2="-428.1419" y2="505.8407" gradientTransform="matrix(68.417 0 0 -38.022 29386.3027 19291.4395)">
	<stop  offset="0" style="stop-color:#1A1A1A;stop-opacity:0.102"/>
	<stop  offset="0.123" style="stop-color:#212121;stop-opacity:0.153"/>
	<stop  offset="0.308" style="stop-color:#353535;stop-opacity:0.227"/>
	<stop  offset="0.532" style="stop-color:#575757;stop-opacity:0.318"/>
	<stop  offset="0.783" style="stop-color:#858585;stop-opacity:0.42"/>
	<stop  offset="1" style="stop-color:#B3B3B3;stop-opacity:0.51"/>
</linearGradient>
<path id="Path_16" class="st2" d="M123.8,0H59.9l25,38h38.9c2.5,0,4.5-2,4.5-4.5v-29C128.3,2,126.3,0,123.8,0z"/>
<g id="Group_9" transform="translate(40.354 17.114)">
	<path id="Path_17" class="st0" d="M10.7,12.8H8.5L7.3,9.1H3.2l-1.1,3.7H0L4.1,0.2h2.5L10.7,12.8z M7,7.6L5.9,4.3
		C5.8,3.9,5.6,3.1,5.3,1.9h0C5.1,2.4,4.9,3.2,4.6,4.3L3.6,7.6H7z M21.1,8.2c0.1,1.3-0.4,2.7-1.3,3.7c-0.7,0.8-1.7,1.2-2.8,1.2
		c-1,0.1-2-0.4-2.6-1.3v4.8h-2V6.7c0-1,0-2-0.1-3h1.8l0.1,1.4h0c1.1-1.7,3.3-2.1,5-1c0.3,0.2,0.6,0.4,0.8,0.7
		C20.8,5.8,21.2,7,21.1,8.2z M19.1,8.2c0-0.8-0.2-1.5-0.6-2.2c-0.4-0.6-1.1-0.9-1.8-0.9c-0.5,0-1,0.2-1.4,0.5
		c-0.4,0.3-0.7,0.8-0.8,1.3c-0.1,0.2-0.1,0.4-0.1,0.6v1.5c0,0.6,0.2,1.2,0.6,1.7c0.4,0.5,1,0.7,1.6,0.7c0.7,0,1.4-0.3,1.8-0.9
		C18.9,9.9,19.1,9.1,19.1,8.2L19.1,8.2z M31.6,8.2c0.1,1.3-0.4,2.7-1.3,3.7c-0.7,0.8-1.7,1.2-2.8,1.2c-1,0.1-2-0.4-2.6-1.3v4.8h-2
		V6.7c0-1,0-2-0.1-3h1.8l0.1,1.4h0c1.1-1.7,3.3-2.1,5-1c0.3,0.2,0.6,0.4,0.8,0.7C31.3,5.8,31.7,7,31.6,8.2z M29.6,8.2
		c0-0.8-0.2-1.5-0.6-2.2c-0.4-0.6-1.1-0.9-1.8-0.9c-0.5,0-1,0.2-1.4,0.5c-0.4,0.3-0.7,0.8-0.8,1.3C25,7.1,25,7.4,25,7.6v1.5
		c0,0.6,0.2,1.2,0.6,1.7c0.4,0.5,1,0.7,1.6,0.7c0.7,0,1.4-0.3,1.8-0.9C29.4,9.9,29.6,9.1,29.6,8.2L29.6,8.2z M43.4,9.3
		c0,1-0.4,2-1.1,2.6c-1,0.8-2.2,1.2-3.4,1.1c-1.1,0.1-2.3-0.2-3.3-0.8l0.5-1.7c0.9,0.5,1.9,0.8,2.9,0.8c0.6,0,1.3-0.1,1.8-0.5
		c0.4-0.3,0.7-0.8,0.6-1.4c0-0.5-0.2-1-0.5-1.3c-0.5-0.4-1.1-0.8-1.7-1c-2.2-0.8-3.3-2-3.3-3.6c0-1,0.4-1.9,1.2-2.6
		c0.9-0.7,2-1.1,3.1-1c1,0,2,0.2,2.9,0.6l-0.5,1.7c-0.7-0.4-1.6-0.6-2.4-0.6c-0.6,0-1.2,0.2-1.7,0.5c-0.3,0.3-0.5,0.7-0.5,1.1
		c0,0.5,0.2,0.9,0.6,1.2c0.6,0.4,1.2,0.8,1.8,1c0.9,0.3,1.7,0.8,2.4,1.5C43.1,7.7,43.4,8.5,43.4,9.3L43.4,9.3z M50.1,5.2h-2.2v4.4
		c0,1.1,0.4,1.7,1.2,1.7c0.3,0,0.6,0,0.9-0.1l0.1,1.5C49.5,13,49,13,48.4,13c-0.7,0-1.4-0.2-1.9-0.7c-0.5-0.7-0.8-1.6-0.7-2.5V5.2
		h-1.3V3.7h1.3V2l2-0.6v2.3h2.2V5.2z M60.2,8.2c0.1,1.3-0.4,2.5-1.2,3.5c-0.9,0.9-2.1,1.4-3.3,1.4c-1.2,0.1-2.4-0.4-3.2-1.3
		c-0.8-0.9-1.2-2.1-1.2-3.4c-0.1-1.3,0.4-2.5,1.2-3.5c0.9-0.9,2.1-1.4,3.3-1.4C57,3.5,58.2,4,59,4.9C59.8,5.8,60.2,7,60.2,8.2z
		 M58.1,8.3c0-0.8-0.2-1.5-0.5-2.2C57.2,5.4,56.5,5,55.7,5c-0.8,0-1.5,0.4-1.9,1.1c-0.4,0.7-0.6,1.4-0.6,2.2c0,0.8,0.2,1.5,0.5,2.2
		c0.5,1,1.8,1.4,2.8,0.8c0.4-0.2,0.7-0.5,0.8-0.9C57.9,9.8,58.1,9,58.1,8.3L58.1,8.3z M66.8,5.5c-0.2,0-0.4-0.1-0.6-0.1
		c-0.7,0-1.3,0.3-1.7,0.8c-0.4,0.5-0.5,1.2-0.5,1.8v4.8h-2V6.6c0-1,0-1.9-0.1-2.9h1.8l0.1,1.7h0.1c0.2-0.6,0.5-1.1,1-1.4
		c0.4-0.3,0.9-0.5,1.5-0.5c0.2,0,0.3,0,0.5,0L66.8,5.5L66.8,5.5z M75.8,7.8c0,0.3,0,0.6-0.1,0.9h-6.1c0,0.8,0.3,1.5,0.9,2.1
		c0.6,0.4,1.3,0.7,2,0.6c0.8,0,1.7-0.1,2.5-0.4l0.3,1.4c-1,0.4-2,0.6-3.1,0.6c-1.2,0.1-2.4-0.4-3.3-1.2c-0.8-0.9-1.3-2.1-1.2-3.4
		c0-1.2,0.4-2.5,1.1-3.4c0.8-1,2-1.5,3.2-1.5C73.2,3.4,74.3,4,75,5C75.6,5.8,75.9,6.8,75.8,7.8L75.8,7.8z M73.9,7.3
		c0-0.5-0.1-1.1-0.4-1.6c-0.3-0.6-1-0.9-1.6-0.8c-0.6,0-1.2,0.3-1.6,0.8c-0.3,0.5-0.6,1-0.6,1.6L73.9,7.3L73.9,7.3z"/>
</g>
<g id="Group_10" transform="translate(41.541 6.231)">
	<path id="Path_18" class="st0" d="M1.5,6.6c-0.5,0-1,0-1.5-0.1V0.4c0.6-0.1,1.1-0.1,1.7-0.1c2.3,0,3.4,1.1,3.4,3
		C5.1,5.4,3.8,6.6,1.5,6.6z M1.8,1.1c-0.3,0-0.5,0-0.8,0.1v4.6c0.2,0,0.4,0,0.7,0C2.9,5.9,4,5,4.1,3.8c0-0.2,0-0.3,0-0.5
		c0.1-1.1-0.7-2.1-1.8-2.3C2.1,1,2,1,1.8,1.1L1.8,1.1z M8.4,6.6c-1.2,0-2.1-0.9-2.2-2.1c0-0.1,0-0.1,0-0.2C6.2,3.1,7.1,2.1,8.3,2
		c0.1,0,0.2,0,0.2,0c1.2,0,2.1,0.9,2.2,2.1c0,0.1,0,0.2,0,0.2c0.1,1.2-0.8,2.3-2,2.4C8.6,6.6,8.5,6.6,8.4,6.6L8.4,6.6z M8.5,2.7
		c-0.7,0-1.2,0.7-1.2,1.6c0,0.9,0.5,1.6,1.2,1.6s1.2-0.7,1.2-1.6C9.7,3.4,9.2,2.7,8.5,2.7L8.5,2.7z M18.2,2.1l-1.4,4.5h-0.9
		l-0.6-1.9c-0.1-0.5-0.3-1-0.4-1.4h0c-0.1,0.5-0.2,1-0.4,1.4l-0.6,1.9H13l-1.3-4.5h1l0.5,2.1c0.1,0.5,0.2,1,0.3,1.4h0
		c0.1-0.4,0.2-0.8,0.4-1.4l0.6-2.1h0.8l0.6,2.1c0.1,0.5,0.3,1,0.4,1.5h0c0.1-0.5,0.2-1,0.3-1.5l0.5-2.1L18.2,2.1L18.2,2.1z
		 M23.3,6.5h-1V4c0-0.8-0.3-1.2-0.9-1.2c-0.6,0-1,0.5-1,1.1c0,0,0,0,0,0v2.7h-1V3.3c0-0.4,0-0.8,0-1.3h0.9l0,0.7h0
		C20.6,2.3,21.2,2,21.8,2c0.9,0,1.6,0.7,1.6,1.9L23.3,6.5z M26.1,6.5h-1V0h1V6.5z M29.7,6.6c-1.2,0-2.1-0.9-2.2-2.1
		c0-0.1,0-0.1,0-0.2c-0.1-1.2,0.8-2.3,2-2.4c0.1,0,0.2,0,0.2,0c1.2,0,2.1,0.9,2.2,2.1c0,0.1,0,0.2,0,0.2c0.1,1.2-0.8,2.3-2,2.4
		C29.9,6.6,29.8,6.6,29.7,6.6L29.7,6.6z M29.7,2.7c-0.7,0-1.2,0.7-1.2,1.6c0,0.9,0.5,1.6,1.2,1.6s1.2-0.7,1.2-1.6
		C30.9,3.4,30.4,2.7,29.7,2.7L29.7,2.7z M35.9,6.5L35.8,6h0c-0.3,0.4-0.8,0.6-1.3,0.6c-0.7,0-1.3-0.5-1.4-1.2c0,0,0-0.1,0-0.1
		c0-1.1,1-1.7,2.6-1.7V3.6c0-0.6-0.3-0.9-0.9-0.9c-0.4,0-0.8,0.1-1.2,0.3l-0.2-0.7c0.5-0.3,1-0.4,1.5-0.4c1.2,0,1.8,0.6,1.8,1.9v1.7
		c0,0.4,0,0.7,0.1,1.1L35.9,6.5L35.9,6.5z M35.7,4.3c-1.1,0-1.7,0.3-1.7,0.9c0,0.3,0.2,0.7,0.6,0.7c0,0,0.1,0,0.1,0
		c0.5,0,1-0.4,1-0.9L35.7,4.3z M41.5,6.5l0-0.7h0c-0.3,0.5-0.8,0.9-1.4,0.8c-1.1-0.1-2-1.1-1.9-2.2c0,0,0-0.1,0-0.1
		C38,3.2,38.8,2.1,40,2c0,0,0.1,0,0.1,0c0.5,0,1,0.2,1.3,0.6h0V0h1v5.3c0,0.4,0,0.8,0,1.2L41.5,6.5L41.5,6.5z M41.4,3.9
		c0-0.6-0.4-1.1-1-1.2c0,0,0,0,0,0c-0.7,0-1.2,0.7-1.2,1.6c0,0.9,0.5,1.5,1.2,1.5c0.6,0,1.1-0.5,1.1-1.2c0,0,0,0,0,0L41.4,3.9
		L41.4,3.9z M48.7,6.6c-1.2,0-2.1-0.9-2.2-2.1c0-0.1,0-0.1,0-0.2c-0.1-1.2,0.8-2.3,2-2.4c0.1,0,0.2,0,0.2,0C50,1.9,50.9,2.9,51,4
		c0,0.1,0,0.2,0,0.2c0.1,1.2-0.8,2.3-2,2.4C48.9,6.6,48.8,6.6,48.7,6.6L48.7,6.6z M48.8,2.7c-0.7,0-1.2,0.7-1.2,1.6
		c0,0.9,0.5,1.6,1.2,1.6s1.2-0.7,1.2-1.6C49.9,3.4,49.5,2.7,48.8,2.7L48.8,2.7z M56.3,6.5h-1V4c0-0.8-0.3-1.2-0.9-1.2
		c-0.6,0-1,0.5-1,1.1c0,0,0,0,0,0v2.7h-1V3.3c0-0.4,0-0.8,0-1.3h0.9l0,0.7h0C53.6,2.3,54.2,2,54.7,2c0.9,0,1.6,0.7,1.6,1.9L56.3,6.5
		z M63,2.8h-1.1V5c0,0.6,0.2,0.8,0.6,0.8c0.1,0,0.3,0,0.4,0l0,0.8c-0.2,0.1-0.5,0.1-0.8,0.1c-0.8,0-1.3-0.4-1.3-1.6V2.8h-0.7V2.1
		h0.7V1.2l1-0.3v1.1H63L63,2.8z M68.3,6.5h-1V4c0-0.8-0.3-1.2-0.9-1.2c-0.5,0-1,0.4-1,0.9c0,0,0,0.1,0,0.1v2.7h-1V0h1v2.7h0
		c0.3-0.5,0.8-0.7,1.3-0.7c0.9,0,1.5,0.7,1.5,1.9L68.3,6.5L68.3,6.5z M73.7,4.5h-3c0,0.7,0.5,1.3,1.2,1.3c0.1,0,0.1,0,0.2,0
		c0.4,0,0.8-0.1,1.2-0.2l0.2,0.7c-0.5,0.2-1,0.3-1.5,0.3c-1.1,0.1-2.1-0.8-2.2-1.9c0-0.1,0-0.2,0-0.3c-0.1-1.2,0.8-2.3,2-2.4
		c0.1,0,0.1,0,0.2,0c1,0,1.9,0.8,1.9,1.9c0,0.1,0,0.2,0,0.2C73.7,4.2,73.7,4.4,73.7,4.5L73.7,4.5z M72.8,3.8c0-0.7-0.3-1.2-1-1.2
		c-0.6,0-1.1,0.6-1.1,1.2H72.8z"/>
</g>
</svg>
