<?xml version="1.0" encoding="utf-8"?>
<!-- Generator: Adobe Illustrator 23.0.0, SVG Export Plug-In . SVG Version: 6.00 Build 0)  -->
<svg version="1.1" id="google-play-badge" xmlns="http://www.w3.org/2000/svg" xmlns:xlink="http://www.w3.org/1999/xlink" x="0px"
	 y="0px" viewBox="0 0 128.3 38" style="enable-background:new 0 0 128.3 38;" xml:space="preserve">
<style type="text/css">
	.st0{fill:#A6A6A6;}
	.st1{fill:#FFFFFF;stroke:#FFFFFF;stroke-width:0.2;stroke-miterlimit:10;}
	.st2{fill:#FFFFFF;}
	.st3{fill:url(#Path_5_1_);}
	.st4{fill:url(#Path_6_1_);}
	.st5{fill:url(#Path_7_1_);}
	.st6{fill:url(#Path_8_1_);}
	.st7{opacity:0.2;enable-background:new    ;}
	.st8{opacity:0.12;enable-background:new    ;}
	.st9{opacity:0.25;fill:#FFFFFF;enable-background:new    ;}
</style>
<path id="Path_1" d="M123.6,38H4.8C2.2,38,0,36,0,33.4c0,0,0-0.1,0-0.1V4.8C0,2.2,2.1,0,4.7,0c0,0,0.1,0,0.1,0h118.8
	c2.6,0,4.7,2.1,4.7,4.7c0,0,0,0.1,0,0.1v28.5C128.3,35.9,126.2,38,123.6,38C123.6,38,123.6,38,123.6,38z"/>
<path id="Path_2" class="st0" d="M123.6,0.8c2.2,0,4,1.8,4,4v28.5c0,2.2-1.8,4-4,4H4.8c-2.2,0-4-1.8-4-4V4.8c0-2.2,1.8-4,4-4H123.6
	 M123.6,0H4.8C2.1,0,0,2.1,0,4.8v28.5C0,35.9,2.1,38,4.7,38c0,0,0.1,0,0.1,0h118.8c2.6,0,4.7-2.1,4.8-4.7c0,0,0-0.1,0-0.1V4.8
	C128.3,2.1,126.2,0,123.6,0L123.6,0z"/>
<path id="Path_3" class="st1" d="M45,9.7c0,0.7-0.2,1.4-0.7,1.9c-1.1,1.2-3,1.2-4.2,0c-0.6-0.6-0.9-1.3-0.9-2.1
	c0-1.6,1.3-2.9,2.9-2.9c0,0,0,0,0.1,0c0.4,0,0.8,0.1,1.1,0.3c0.3,0.1,0.6,0.4,0.9,0.7L43.8,8c-0.4-0.5-0.9-0.7-1.5-0.7
	c-0.6,0-1.1,0.2-1.5,0.7c-0.5,0.4-0.7,1-0.7,1.6c0,0.6,0.2,1.2,0.7,1.6c0.4,0.4,1,0.6,1.5,0.7c0.6,0,1.2-0.2,1.6-0.7
	c0.3-0.3,0.5-0.7,0.5-1.1h-2.1V9.3H45V9.7L45,9.7z M49.4,7.3h-2.6v1.8h2.4v0.7h-2.4v1.8h2.6v0.8h-3.3V6.7h3.3V7.3z M52.6,12.4h-0.8
	v-5h-1.6V6.7h4v0.7h-1.6V12.4z M56.9,12.4V6.7h0.8v5.7H56.9z M60.9,12.4h-0.8v-5h-1.6V6.7h3.9v0.7h-1.6L60.9,12.4L60.9,12.4z
	 M69.9,11.6c-1.1,1.2-3,1.2-4.2,0c-0.6-0.6-0.9-1.3-0.9-2.1c0-1.6,1.3-2.9,2.9-2.9s2.9,1.3,2.9,2.9c0,0,0,0,0,0
	C70.8,10.3,70.5,11,69.9,11.6z M66.3,11.1c0.4,0.4,0.9,0.6,1.5,0.7c0.6,0,1.1-0.2,1.5-0.7c0.4-0.4,0.7-1,0.7-1.6
	c0-0.6-0.2-1.2-0.7-1.6c-0.4-0.4-0.9-0.6-1.5-0.7c-0.6,0-1.1,0.2-1.5,0.7c-0.4,0.4-0.7,1-0.7,1.6C65.6,10.1,65.9,10.7,66.3,11.1
	L66.3,11.1z M71.8,12.4V6.7h0.9l2.8,4.5V6.7h0.8v5.7h-0.8l-2.9-4.7v4.7H71.8z"/>
<path id="Path_4" class="st2" d="M64.7,20.7c-2.2,0-4,1.7-4.1,3.9c0,0.1,0,0.1,0,0.2c0,2.2,1.8,4.1,4,4.1c0,0,0,0,0.1,0
	c2.2,0,4-1.7,4.1-3.9c0-0.1,0-0.1,0-0.2c0.1-2.2-1.6-4-3.8-4.1C64.9,20.7,64.8,20.7,64.7,20.7z M64.7,27.2c-1.4-0.1-2.4-1.3-2.3-2.7
	c0.1-1.2,1.1-2.2,2.3-2.3c1.3,0,2.3,1,2.3,2.3c0,0.1,0,0.1,0,0.2C67.1,26,66.1,27.1,64.7,27.2C64.7,27.2,64.7,27.2,64.7,27.2
	L64.7,27.2z M55.9,20.7c-2.2,0-4,1.7-4.1,3.9c0,0.1,0,0.1,0,0.2c0,2.2,1.8,4.1,4,4.1c0,0,0,0,0.1,0c2.2,0,4-1.7,4.1-3.9
	c0-0.1,0-0.1,0-0.2c0.1-2.2-1.6-4-3.8-4.1C56.1,20.7,56,20.7,55.9,20.7z M55.9,27.2c-1.4-0.1-2.4-1.3-2.3-2.7
	c0.1-1.2,1.1-2.2,2.3-2.3c1.3,0,2.3,1,2.3,2.3c0,0.1,0,0.1,0,0.2C58.2,26,57.2,27.1,55.9,27.2C55.9,27.2,55.9,27.2,55.9,27.2
	L55.9,27.2z M45.3,22v1.7h4.1c-0.1,0.8-0.4,1.6-1,2.2c-0.8,0.8-2,1.3-3.1,1.2c-2.4,0-4.4-1.9-4.5-4.4c0-0.1,0-0.1,0-0.2
	c0-2.5,1.9-4.5,4.4-4.6c0,0,0,0,0.1,0c1.2,0,2.3,0.5,3.1,1.2l1.2-1.2c-1.1-1.1-2.7-1.7-4.3-1.7c-3.5,0-6.3,2.8-6.4,6.3
	c0.1,3.5,2.9,6.3,6.4,6.3c1.7,0.1,3.3-0.6,4.4-1.8c1-1.1,1.5-2.5,1.5-4c0-0.4,0-0.7-0.1-1L45.3,22z M88.5,23.3
	c-0.5-1.5-1.9-2.5-3.4-2.6c-2.1,0-3.8,1.7-3.8,3.8c0,0.1,0,0.2,0,0.2c-0.1,2.2,1.7,4,3.9,4.1c0,0,0.1,0,0.1,0c1.3,0,2.6-0.7,3.3-1.8
	l-1.3-1c-0.4,0.7-1.2,1.1-2,1.1c-0.9,0-1.7-0.4-2-1.2l5.4-2.3L88.5,23.3L88.5,23.3z M83,24.6c0-1.2,0.9-2.3,2.1-2.4
	c0.6,0,1.2,0.3,1.5,0.9L83,24.6z M78.5,28.5h1.8V16.6h-1.8L78.5,28.5z M75.7,21.6c-0.6-0.6-1.4-0.9-2.2-1c-2.2,0.1-3.9,1.9-3.9,4.1
	c0,2.2,1.7,4,3.9,4c0,0,0,0,0,0c0.8,0,1.6-0.3,2.1-1h0.1v0.6c0.1,1.2-0.7,2.2-1.9,2.4c-1,0.1-1.9-0.5-2.2-1.4L70,29.9
	c0.6,1.4,2,2.4,3.6,2.4c2.1,0,3.8-1.2,3.8-4.2v-7.2h-1.7V21.6z M73.6,27.2c-1.4-0.1-2.4-1.3-2.3-2.7c0.1-1.2,1.1-2.2,2.3-2.3
	c1.3,0.1,2.2,1.1,2.2,2.4c0,0,0,0.1,0,0.1C75.9,26,74.9,27.1,73.6,27.2C73.6,27.2,73.6,27.2,73.6,27.2z M96.8,16.6h-4.3v11.9h1.8V24
	h2.5c2,0.1,3.8-1.5,3.9-3.5s-1.5-3.8-3.5-3.9C97,16.6,96.9,16.6,96.8,16.6z M96.8,22.3h-2.6v-4.1h2.6c1.1,0,2,0.9,2.1,2
	C98.9,21.4,98,22.3,96.8,22.3L96.8,22.3z M107.8,20.6c-1.3-0.1-2.6,0.6-3.1,1.8l1.6,0.7c0.3-0.6,1-0.9,1.6-0.9
	c0.9-0.1,1.8,0.6,1.9,1.5v0.1c-0.6-0.3-1.2-0.5-1.8-0.5c-1.7,0-3.4,1-3.4,2.7c0.1,1.5,1.4,2.7,2.9,2.7c0,0,0,0,0,0
	c0.9,0,1.8-0.4,2.3-1.1h0.1v1h1.7V24C111.4,22,109.7,20.5,107.8,20.6L107.8,20.6z M107.6,27.2c-0.6,0-1.4-0.3-1.4-1
	c0-1,1-1.2,1.9-1.2c0.6,0,1.1,0.1,1.6,0.4C109.5,26.3,108.6,27.1,107.6,27.2L107.6,27.2z M117.6,20.9l-2,5.1h-0.1l-2.1-5.1h-1.9
	l3.1,7.2l-1.8,4h1.8l4.8-11.2L117.6,20.9L117.6,20.9z M101.6,28.5h1.8V16.6h-1.8V28.5z"/>
<g id="Group_8" transform="translate(9.504 6.793)">
	
		<linearGradient id="Path_5_1_" gradientUnits="userSpaceOnUse" x1="-408.3816" y1="492.0407" x2="-409.6726" y2="492.7127" gradientTransform="matrix(12.365 0 0 -23.762 5061.2666 11715.1602)">
		<stop  offset="0" style="stop-color:#00A0FF"/>
		<stop  offset="7.000001e-03" style="stop-color:#00A1FF"/>
		<stop  offset="0.26" style="stop-color:#00BEFF"/>
		<stop  offset="0.512" style="stop-color:#00D2FF"/>
		<stop  offset="0.76" style="stop-color:#00DFFF"/>
		<stop  offset="1" style="stop-color:#00E3FF"/>
	</linearGradient>
	<path id="Path_5" class="st3" d="M0.4,0.3C0.1,0.7,0,1.2,0,1.7v21c0,0.5,0.1,1,0.5,1.3l0.1,0.1l11.8-11.8v-0.2L0.4,0.3z"/>
	
		<linearGradient id="Path_6_1_" gradientUnits="userSpaceOnUse" x1="-398.3738" y1="453.2863" x2="-400.7578" y2="453.2863" gradientTransform="matrix(9.6552 0 0 -8.078 3869.0566 3673.9097)">
		<stop  offset="0" style="stop-color:#FFE000"/>
		<stop  offset="0.409" style="stop-color:#FFBD00"/>
		<stop  offset="0.775" style="stop-color:#FFA500"/>
		<stop  offset="1" style="stop-color:#FF9C00"/>
	</linearGradient>
	<path id="Path_6" class="st4" d="M16.2,16.3l-3.9-3.9v-0.3l3.9-3.9l0.1,0.1l4.7,2.7c1.3,0.8,1.3,2,0,2.8L16.2,16.3z"/>
	
		<linearGradient id="Path_7_1_" gradientUnits="userSpaceOnUse" x1="-416.7928" y1="473.6193" x2="-418.1558" y2="475.3853" gradientTransform="matrix(15.876 0 0 -12.2499 6622.3262 5818.9243)">
		<stop  offset="0" style="stop-color:#FF3A44"/>
		<stop  offset="1" style="stop-color:#C31162"/>
	</linearGradient>
	<path id="Path_7" class="st5" d="M16.3,16.2l-4-4L0.4,24.1c0.5,0.5,1.1,0.5,2,0.1L16.3,16.2"/>
	
		<linearGradient id="Path_8_1_" gradientUnits="userSpaceOnUse" x1="-417.9864" y1="471.7069" x2="-417.3774" y2="472.4989" gradientTransform="matrix(15.872 0 0 -12.2014 6620.5474 5781.8496)">
		<stop  offset="0" style="stop-color:#32A071"/>
		<stop  offset="6.900000e-02" style="stop-color:#2DA771"/>
		<stop  offset="0.476" style="stop-color:#15CF74"/>
		<stop  offset="0.801" style="stop-color:#06E775"/>
		<stop  offset="1" style="stop-color:#00F076"/>
	</linearGradient>
	<path id="Path_8" class="st6" d="M16.3,8.2L2.4,0.3c-0.6-0.5-1.4-0.4-2,0.1l11.9,11.8L16.3,8.2z"/>
	<path id="Path_9" class="st7" d="M16.2,16.1L2.4,23.9c-0.6,0.4-1.3,0.4-1.9,0L0.4,24l0.1,0.1c0.6,0.4,1.3,0.4,1.9,0L16.2,16.1z"/>
	<path id="Path_10" class="st8" d="M0.4,23.9C0.1,23.5,0,23.1,0,22.6v0.1C0,23.2,0.1,23.6,0.4,23.9L0.4,23.9L0.4,23.9L0.4,23.9z
		 M20.9,13.5l-4.8,2.7l0.1,0.1l4.7-2.7c0.5-0.2,0.9-0.8,0.9-1.3C21.9,12.7,21.5,13.1,20.9,13.5z"/>
	<path id="Path_11" class="st9" d="M2.4,0.4L20.9,11c0.6,0.4,1,0.8,1,1.2c0-0.6-0.4-1.1-1-1.3L2.4,0.4C1-0.4,0,0.1,0,1.7v0.1
		C0,0.3,1-0.3,2.4,0.4z"/>
</g>
</svg>
